<svg id="Layer_1" data-name="Layer 1" xmlns="http://www.w3.org/2000/svg" viewBox="0 0 161.68 43.11"><defs><style>.cls-1{fill:#f38b00;}.cls-2{fill:#231f20;}</style></defs><title>[24]7ai_Logo_Standard</title><path class="cls-1" d="M117.52,8.86H98.15V0.7h29.3V8.5l-16.73,34H100.38Z"/><path class="cls-2" d="M14.58,33.16l16.25-14.6A30.33,30.33,0,0,0,33.32,16a4.88,4.88,0,0,0,1.24-3.31A4,4,0,0,0,33,9.37a5.67,5.67,0,0,0-3.61-1.21,5,5,0,0,0-3.87,1.54A6.19,6.19,0,0,0,24,13.48l-8.86-.65a14.36,14.36,0,0,1,1.36-5.65,11.88,11.88,0,0,1,3.13-4A13.18,13.18,0,0,1,24.19.8a19.54,19.54,0,0,1,5.7-.8,17.27,17.27,0,0,1,5.32.8,12.4,12.4,0,0,1,4.32,2.36,10.77,10.77,0,0,1,2.87,3.93,13.61,13.61,0,0,1,1,5.5A14.75,14.75,0,0,1,43,16.23a12.36,12.36,0,0,1-1.15,3,13.54,13.54,0,0,1-1.74,2.45,28.85,28.85,0,0,1-2.19,2.19L25.22,34.75H43.78v7.8H14.58v-9.4Z"/><path class="cls-2" d="M120,39.93a2.88,2.88,0,0,1,.22-1.11,2.76,2.76,0,0,1,.6-0.91,2.82,2.82,0,0,1,.91-0.6,3,3,0,0,1,2.22,0,2.82,2.82,0,0,1,.91.6,2.76,2.76,0,0,1,.6.91,2.93,2.93,0,0,1,0,2.22,2.71,2.71,0,0,1-.6.91,2.76,2.76,0,0,1-.91.6,3,3,0,0,1-2.22,0,2.76,2.76,0,0,1-.91-0.6,2.71,2.71,0,0,1-.6-0.91A2.88,2.88,0,0,1,120,39.93Z"/><path class="cls-2" d="M144.38,39.92h-0.09a6.16,6.16,0,0,1-2.91,2.44,10.14,10.14,0,0,1-6.68.33,7.26,7.26,0,0,1-2.42-1.25,6,6,0,0,1-1.66-2.05,6.27,6.27,0,0,1-.61-2.84,6.52,6.52,0,0,1,.68-3.1,6.07,6.07,0,0,1,1.83-2.09,9.07,9.07,0,0,1,2.64-1.29,19.11,19.11,0,0,1,3.08-.68,29.92,29.92,0,0,1,3.19-.26q1.6,0,2.95,0a3.4,3.4,0,0,0-1.25-2.77,4.49,4.49,0,0,0-2.95-1,6.4,6.4,0,0,0-2.95.68,8,8,0,0,0-2.38,1.86l-3.49-3.58a12,12,0,0,1,4.28-2.55,15.26,15.26,0,0,1,5.07-.85,13.23,13.23,0,0,1,4.74.72,6.84,6.84,0,0,1,3,2.12A8.16,8.16,0,0,1,150,27.1a22.59,22.59,0,0,1,.44,4.69V42.58h-6V39.92Zm-1.62-6.64c-0.49,0-1.11,0-1.85.06a9.5,9.5,0,0,0-2.14.37,4.78,4.78,0,0,0-1.75.92,2.11,2.11,0,0,0-.72,1.7,1.88,1.88,0,0,0,1,1.75,4.22,4.22,0,0,0,2.1.57,6.55,6.55,0,0,0,1.85-.26,5.52,5.52,0,0,0,1.6-.74A3.59,3.59,0,0,0,144,36.43a3.53,3.53,0,0,0,.41-1.75v-1.4h-1.62Z"/><path class="cls-2" d="M154.07,14.67a3.8,3.8,0,1,1,6.49,2.69A3.8,3.8,0,0,1,154.07,14.67Zm0.53,6.68h6.55V42.58H154.6V21.36Z"/><path class="cls-2" d="M66.36,34.16H47.84V26.72l13.08-26H74.87v26h5.38v7.45H74.87v8.39H66.36V34.16ZM66.11,10.73h-0.4l-7.95,16h8.6Z"/><path class="cls-2" d="M83.06,0.71h9.58V42.5H83.06V39.68h5.4V3.53h-5.4V0.71Z"/><path class="cls-2" d="M9.58,3.53H4.18V39.68h5.4V42.5H0V0.71H9.58V3.53Z"/></svg>